<svg height='100px' width='100px'  fill="#000000" xmlns="http://www.w3.org/2000/svg" xmlns:xlink="http://www.w3.org/1999/xlink" version="1.1" x="0px" y="0px" viewBox="-247 370.9 534 104" style="enable-background:new -247 370.9 100 100;" xml:space="preserve"><path fill="#666" d="M-213.8,376.1v89.6h33.5v-89.6H-213.8z M-182.2,378.1v41.8h-29.6v-41.8H-182.2z M-211.8,455.4V452h29.5v3.4H-211.8z   M-182.2,456.4v3.4h-29.6v-3.4H-182.2z M-211.8,451.1v-3.4h29.5v3.4H-211.8z M-211.8,446.7v-3.4h29.5v3.4H-211.8z M-211.8,442.3  v-3.4h29.5v3.4H-211.8z M-211.8,437.9v-3.4h29.5v3.4H-211.8z M-211.8,433.5v-3.4h29.5v3.4H-211.8z M-211.8,429.2v-3.4h29.5v3.4  H-211.8z M-211.8,424.8v-2.9h29.5v2.9H-211.8z M-211.8,463.7v-2.9h29.5v2.9H-211.8z"></path>

<defs>
  <style type="text/css">
    .thin { stroke-width:2; stroke-dasharray:8 4; }
    .thick { stroke-width:4; }
    .fillstrokedark { fill:#555; stroke:#555; }
    .filldark { fill:#555; stroke:none; }
    .filllight { fill:#fff; stroke:none; }
    .strokedark { fill:none; stroke:#333; }
    .strokehalfdark { fill:none; stroke:#777; }
  </style>
</defs>
<g transform="translate(-147 368.9)">
  <path d="M 0 10 h 100" class="thin strokedark"/>
  <path d="M 0 20 h 100" class="thin strokedark"/>
  <path d="M 0 30 h 100" class="thin strokedark"/>
  <path d="M 0 40 h 100" class="thin strokedark"/>
  <rect x="0" y="0" width="100" height="100" class="thick strokedark"/>
  <path d="M 0 50 h 100" class="thick strokedark"/>
  <rect x="0" y="50" width="100" height="50" class="thick fillstrokedark"/>
  <path d="M 50 89 L24 61 L 76 61 z" class="filllight"/>
</g>
<g transform="translate(-47 368.9)">
  <path d="M 0 10 h 100" class="thin strokedark"/>
  <path d="M 0 20 h 100" class="thin strokedark"/>
  <path d="M 0 30 h 100" class="thin strokedark"/>
  <path d="M 0 40 h 100" class="thin strokedark"/>
  <path d="M 0 50 h 100" class="thin strokedark"/>
  <path d="M 0 60 h 100" class="thin strokedark"/>
  <path d="M 0 70 h 100" class="thin strokedark"/>
  <path d="M 0 80 h 100" class="thin strokedark"/>
  <path d="M 0 90 h 100" class="thin strokedark"/>
  <rect x="0" y="0" width="100" height="100" class="thick strokedark"/>
  <path d="M 0 50 h 100" class="thick strokedark"/>
  <path d="M 50 58 L20 88 L 80 88 z" class="filldark thick"/>
</g>

<!--
<path d="M-213.8,376.1v89.6h33.5v-89.6H-213.8z M-182.2,378.1v41.8h-29.6v-41.8H-182.2z M-211.8,455.4V452h29.5v3.4H-211.8z   M-182.2,456.4v3.4h-29.6v-3.4H-182.2z M-211.8,451.1v-3.4h29.5v3.4H-211.8z M-211.8,446.7v-3.4h29.5v3.4H-211.8z M-211.8,442.3  v-3.4h29.5v3.4H-211.8z M-211.8,437.9v-3.4h29.5v3.4H-211.8z M-211.8,433.5v-3.4h29.5v3.4H-211.8z M-211.8,429.2v-3.4h29.5v3.4  H-211.8z M-211.8,424.8v-2.9h29.5v2.9H-211.8z M-211.8,463.7v-2.9h29.5v2.9H-211.8z"></path>
-->
</svg>
