<svg xmlns="http://www.w3.org/2000/svg" xmlns:xlink="http://www.w3.org/1999/xlink" version="1.1" x="0px" y="0px" viewBox="0 0 100 125" enable-background="new 0 0 100 100" xml:space="preserve"><path d="M58,34V24H11v25c0,11.682-2.919,20.595-2.949,20.684L7.614,71h35.405c-0.849,5.266-1.957,8.65-1.968,8.686L40.616,81h47.104  l0.228-0.684C88.073,79.942,91,71.024,91,59V34H58z M13,49V26h43v8v15c0,9.829-2.066,17.698-2.74,20h-9.94H10.345  C11.174,66.059,13,58.498,13,49z M89,59c0,9.829-2.066,17.698-2.74,20H43.342c0.427-1.531,1.126-4.322,1.703-8h9.676l0.228-0.684  C55.073,69.942,58,61.024,58,49V36h31V59z"/><text x="0" y="115" fill="#000000" font-size="5px" font-weight="bold" font-family="'Helvetica Neue', Helvetica, Arial-Unicode, Arial, Sans-serif">Created by OliM</text><text x="0" y="120" fill="#000000" font-size="5px" font-weight="bold" font-family="'Helvetica Neue', Helvetica, Arial-Unicode, Arial, Sans-serif">from the Noun Project</text></svg>