<svg xmlns="http://www.w3.org/2000/svg" xmlns:xlink="http://www.w3.org/1999/xlink" version="1.1" baseProfile="basic" x="0px" y="0px" viewBox="0 0 90 112.5" xml:space="preserve"><path d="M80.172,23.664c-6.437-6.437-16.873-6.437-23.31,0l-0.881,0.881v0l0,0L55.1,23.664c-6.437-6.437-16.873-6.437-23.309,0  c-6.437,6.437-6.437,16.873,0,23.31l12.536,12.536c0,0,0,0,0,0l11.655,11.655l11.655-11.655c0,0,0,0,0,0l12.536-12.536  C86.609,40.536,86.609,30.1,80.172,23.664z"/><path d="M34.018,54.858l-5.057-5.057c-7.986-7.986-7.986-20.98,0-28.966c0.047-0.047,0.099-0.086,0.146-0.132  c-6.214-3.244-14.061-2.259-19.28,2.96c-6.437,6.437-6.437,16.873,0,23.31l12.536,12.536c0,0,0,0,0,0l11.655,11.655l8.153-8.153  L34.018,54.858z"/><text x="0" y="105" fill="#000000" font-size="5px" font-weight="bold" font-family="'Helvetica Neue', Helvetica, Arial-Unicode, Arial, Sans-serif">Created by y. onaldi</text><text x="0" y="110" fill="#000000" font-size="5px" font-weight="bold" font-family="'Helvetica Neue', Helvetica, Arial-Unicode, Arial, Sans-serif">from the Noun Project</text></svg>