<svg xmlns="http://www.w3.org/2000/svg" xmlns:xlink="http://www.w3.org/1999/xlink" viewBox="0 0 100 125" version="1.1" x="0px" y="0px"><title>Regular Text Cursor</title><desc>Created with Sketch.</desc><g stroke="none" stroke-width="1" fill="none" fill-rule="evenodd"><g fill="#060"><path d="M68,50 C68,40.0588745 59.9411255,32 50,32 C40.0588745,32 32,40.0588745 32,50 C32,59.9411255 40.0588745,68 50,68 C59.9411255,68 68,59.9411255 68,50 Z M34,50 C34,41.163444 41.163444,34 50,34 C58.836556,34 66,41.163444 66,50 C66,58.836556 58.836556,66 50,66 C41.163444,66 34,58.836556 34,50 Z M51.4142136,50 L56.7071068,55.2928932 C57.0976311,55.6834175 57.0976311,56.3165825 56.7071068,56.7071068 C56.3165825,57.0976311 55.6834175,57.0976311 55.2928932,56.7071068 L50,51.4142136 L44.7071068,56.7071068 C44.3165825,57.0976311 43.6834175,57.0976311 43.2928932,56.7071068 C42.9023689,56.3165825 42.9023689,55.6834175 43.2928932,55.2928932 L48.5857864,50 L43.2928932,44.7071068 C42.9023689,44.3165825 42.9023689,43.6834175 43.2928932,43.2928932 C43.6834175,42.9023689 44.3165825,42.9023689 44.7071068,43.2928932 L50,48.5857864 L55.2928932,43.2928932 C55.6834175,42.9023689 56.3165825,42.9023689 56.7071068,43.2928932 C57.0976311,43.6834175 57.0976311,44.3165825 56.7071068,44.7071068 L51.4142136,50 Z"/></g></g><text x="0" y="115" fill="#000000" font-size="5px" font-weight="bold" font-family="'Helvetica Neue', Helvetica, Arial-Unicode, Arial, Sans-serif">Created by Landan Lloyd</text><text x="0" y="120" fill="#000000" font-size="5px" font-weight="bold" font-family="'Helvetica Neue', Helvetica, Arial-Unicode, Arial, Sans-serif">from the Noun Project</text></svg>
