<svg xmlns:dc="http://purl.org/dc/elements/1.1/" xmlns:cc="http://creativecommons.org/ns#" xmlns:rdf="http://www.w3.org/1999/02/22-rdf-syntax-ns#" xmlns:svg="http://www.w3.org/2000/svg" xmlns="http://www.w3.org/2000/svg" xmlns:sodipodi="http://sodipodi.sourceforge.net/DTD/sodipodi-0.dtd" xmlns:inkscape="http://www.inkscape.org/namespaces/inkscape" version="1.1" x="0px" y="0px" viewBox="0 0 100 125"><g transform="translate(0,-952.36218)"><path style="text-indent:0;text-transform:none;direction:ltr;block-progression:tb;baseline-shift:baseline;color:#000000;enable-background:accumulate;" d="m 52.607268,968.36218 c -14.43404,0 -26.84079,8.7969 -31.93745,21.3125 l -2.03125,-3.59375 a 3.0003,3.0003 0 0 0 -2.71875,-1.59375 3.0003,3.0003 0 0 0 -2.531251,4.5 l 5.500001,9.84379 a 3.0003,3.0003 0 0 0 4,1.18753 l 9.78125,-5.00007 a 3.0003,3.0003 0 1 0 -2.71875,-5.34375 l -3.59375,1.84375 c 4.29732,-10.05388 14.4228,-17.15625 26.24995,-17.15625 15.7506,0 28.4063,12.52224 28.4063,28.00002 0,15.4777 -12.6557,28 -28.4063,28 -13.47392,0 -24.69748,-9.2465 -27.6562,-21.5625 a 3.0052909,3.0052909 0 0 0 -5.84375,1.4063 c 3.6044,15.0037 17.28155,26.1562 33.49995,26.1562 18.9503,0 34.4063,-15.2362 34.4063,-34 0,-18.76386 -15.456,-34.00002 -34.4063,-34.00002 z m 0.375,14.9375 a 3.0003,3.0003 0 0 0 -2.9687,3.0625 l 0,16.00002 a 3.0003,3.0003 0 0 0 1.125,2.3438 l 10,8 a 3.0014645,3.0014645 0 1 0 3.75,-4.6875 l -8.875,-7.0938 0,-14.56252 a 3.0003,3.0003 0 0 0 -3.0313,-3.0625 z" fill="#000000" fill-opacity="1" stroke="none" marker="none" visibility="visible" display="inline" overflow="visible"/></g><text x="0" y="115" fill="#000000" font-size="5px" font-weight="bold" font-family="'Helvetica Neue', Helvetica, Arial-Unicode, Arial, Sans-serif">Created by Rockicon</text><text x="0" y="120" fill="#000000" font-size="5px" font-weight="bold" font-family="'Helvetica Neue', Helvetica, Arial-Unicode, Arial, Sans-serif">from the Noun Project</text></svg>