<svg height='100px' width='100px'  fill="#000000" xmlns="http://www.w3.org/2000/svg" xmlns:xlink="http://www.w3.org/1999/xlink" version="1.1" x="0px" y="0px" viewBox="0 0 100 100" enable-background="new 0 0 100 100" xml:space="preserve"><g><path d="M51.129,43.953c0.08-0.24,1.96-5.97,1.96-13.68V14H22.454v16.273c0,7.368-1.839,12.992-1.858,13.047l-0.437,1.316h30.742   L51.129,43.953z M22.877,42.636c0.572-2.148,1.577-6.727,1.577-12.363V16H51.09v14.273c0,5.879-1.171,10.648-1.654,12.363H22.877z"></path><path d="M56.909,30.364v16.273c0,3.414-0.395,6.442-0.821,8.727H41.545V49H10.909v16.273c0,7.368-1.839,12.992-1.858,13.047   l-0.437,1.316h22.604c-0.524,3.071-1.16,5.028-1.167,5.05L29.617,86h30.74l0.228-0.684c0.08-0.24,1.96-5.97,1.96-13.68V61h22.812   l0.228-0.684c0.08-0.24,1.96-5.97,1.96-13.68V30.364H56.909z M12.909,65.273V51h26.636v4.364v9.909   c0,5.879-1.171,10.648-1.654,12.363h-6.365H11.332C11.904,75.488,12.909,70.91,12.909,65.273z M60.545,71.636   c0,5.88-1.171,10.648-1.654,12.364H32.329c0.26-0.985,0.612-2.484,0.919-4.364h6.108l0.228-0.684c0.08-0.24,1.96-5.97,1.96-13.68   v-7.909h14.127c-0.337,1.449-0.614,2.299-0.621,2.32L54.614,61h5.931V71.636z M85.545,46.637c0,5.879-1.171,10.648-1.654,12.363   H57.332c0.572-2.148,1.577-6.727,1.577-12.363V32.364h26.636V46.637z"></path></g></svg>