<svg xmlns="http://www.w3.org/2000/svg" xmlns:xlink="http://www.w3.org/1999/xlink" version="1.1" baseProfile="basic" x="0px" y="0px" viewBox="0 0 90 112.5" xml:space="preserve"><path d="M78.346,17.178c-8.873-8.873-23.258-8.873-32.131,0L45,18.393l0,0l0,0l-1.215-1.215c-8.873-8.873-23.258-8.873-32.131,0  c-8.873,8.873-8.873,23.258,0,32.131l17.28,17.28c0,0,0,0,0,0L45,82.654l16.065-16.065c0,0,0,0,0,0l17.28-17.28  C87.218,40.436,87.218,26.051,78.346,17.178z"/><text x="0" y="105" fill="#000000" font-size="5px" font-weight="bold" font-family="'Helvetica Neue', Helvetica, Arial-Unicode, Arial, Sans-serif">Created by y. onaldi</text><text x="0" y="110" fill="#000000" font-size="5px" font-weight="bold" font-family="'Helvetica Neue', Helvetica, Arial-Unicode, Arial, Sans-serif">from the Noun Project</text></svg>