<svg xmlns="http://www.w3.org/2000/svg" viewBox="0 0 68 75" x="0px" y="0px"><path fill="#000000" fill-rule="evenodd" d="M700,589 C700,582.924502 704.924089,578 711,578 C717.075498,578 722,582.924089 722,589 C722,595.075498 717.075911,600 711,600 C704.924502,600 700,595.075911 700,589 Z M709,587 L706,587 C705.448129,587 705.000749,587.443353 705.000749,588.009369 L705.000749,589.990631 C705.000749,590.54809 705.449151,591 706,591 L709,591 L709,594 C709,594.551871 709.443353,594.999251 710.009369,594.999251 L711.990631,594.999251 C712.54809,594.999251 713,594.550849 713,594 L713,591 L716,591 C716.551871,591 716.999251,590.556647 716.999251,589.990631 L716.999251,588.009369 C716.999251,587.45191 716.550849,587 716,587 L713,587 L713,583.999251 C713,583.44738 712.556647,583 711.990631,583 L710.009369,583 C709.45191,583 709,583.448402 709,583.999251 L709,587 Z M715.15825,575.62777 L715.15825,575.62777 C713.844559,575.219767 712.447964,575 711,575 C703.26736,575 697,581.267522 697,589 C697,590.447974 697.219767,591.844569 697.627766,593.158254 L691.414214,599.371807 C690.633165,600.152855 689.366835,600.152855 688.585786,599.371807 L661.6053,572.39132 C654.19818,564.9842 654.185331,552.981862 661.568253,545.561003 C669.020694,538.146527 681.028099,538.157265 688.433727,545.562893 L690,547.129166 L691.566273,545.562893 C698.971901,538.157265 710.979306,538.146527 718.39659,545.525847 C725.814669,552.981862 725.80182,564.9842 718.3947,572.39132 L715.15825,575.62777 Z" transform="translate(-656 -540)"/><text x="0" y="75" fill="#000000" font-size="5px" font-weight="bold" font-family="'Helvetica Neue', Helvetica, Arial-Unicode, Arial, Sans-serif">Created by Andrejs Kirma</text><text x="0" y="80" fill="#000000" font-size="5px" font-weight="bold" font-family="'Helvetica Neue', Helvetica, Arial-Unicode, Arial, Sans-serif">from the Noun Project</text></svg>