<?xml version="1.0" encoding="iso-8859-1"?>
<!DOCTYPE svg PUBLIC "-//W3C//DTD SVG 1.1//EN" "http://www.w3.org/Graphics/SVG/1.1/DTD/svg11.dtd">
<svg version="1.1" id="Capa_1" xmlns="http://www.w3.org/2000/svg"
	 viewBox="0 0 211.213 211.213" >
<path d="M160.246,54.638L105.607,0L54.638,50.969v-0.002L0,105.605l50.969,50.969h-0.002l54.638,54.638l50.969-50.969v0.002
	l54.638-54.638l-50.969-50.969H160.246z M21.213,105.605l18.426-18.426l0.001,36.854L21.213,105.605z M105.607,21.213l18.426,18.426
	L87.18,39.64L105.607,21.213z M105.605,190l-18.426-18.426l36.854-0.001L105.605,190z M54.641,156.575L54.638,54.641l101.934-0.003
	l0.003,101.934L54.641,156.575z M190,105.607l-18.426,18.426l-0.001-36.854L190,105.607z M105.606,79.341
	c-14.483,0-26.266,11.783-26.266,26.266s11.783,26.266,26.266,26.266s26.266-11.783,26.266-26.266S120.089,79.341,105.606,79.341z
	 M105.606,116.872c-6.212,0-11.266-5.054-11.266-11.266s5.054-11.266,11.266-11.266s11.266,5.054,11.266,11.266
	S111.818,116.872,105.606,116.872z"/>
</svg>
