<svg xmlns="http://www.w3.org/2000/svg" xmlns:xlink="http://www.w3.org/1999/xlink" version="1.1" x="0px" y="0px" viewBox="0 0 1024 1280" enable-background="new 0 0 1024 1024" xml:space="preserve"><g><g><g><path d="M661.2,437.1c0,12.1-0.8,24.1-2.4,36c0.4-2.6,0.7-5.2,1.1-7.8c-3.1,23-9.1,45.4-17.7,66.9c-2.2,5.6,2.5-5.7,0.7-1.5     c-0.5,1.2-1.1,2.4-1.6,3.6c-1.2,2.6-2.4,5.2-3.7,7.8c-2.5,5.1-5.2,10.2-8,15.1c-5.6,9.9-11.9,19.4-18.7,28.5     c-0.8,1-3.8,5-0.5,0.7c3.3-4.3,0.3-0.4-0.5,0.6c-1.8,2.2-3.6,4.4-5.4,6.5c-3.7,4.3-7.5,8.5-11.4,12.6     c-7.9,8.1-16.3,15.8-25.1,22.9c-0.9,0.7-2,2-3.1,2.4c-0.6,0.2,5.8-4.4,3.4-2.6c-0.5,0.4-1,0.8-1.6,1.2c-2.4,1.8-4.9,3.6-7.4,5.4     c-4.7,3.3-9.4,6.4-14.3,9.4c-9.6,5.8-19.5,11.1-29.7,15.7c-1.6,0.7-3.2,1.4-4.8,2.1c-2.8,1.3,4.5-2.1,4-1.7     c-0.6,0.5-1.7,0.7-2.5,1c-2.9,1.2-5.8,2.3-8.7,3.3c-6.1,2.2-12.2,4.2-18.4,6c-12.8,3.7-25.9,6.3-39.2,8.1     c2.6-0.4,5.2-0.7,7.8-1.1c-23.9,3.1-48.2,3.1-72.1,0c2.6,0.4,5.2,0.7,7.8,1.1c-23-3.1-45.4-9.1-66.9-17.7     c-5.6-2.2,5.7,2.5,1.5,0.7c-1.2-0.5-2.4-1.1-3.6-1.6c-2.6-1.2-5.2-2.4-7.8-3.7c-5.1-2.5-10.2-5.2-15.1-8     c-9.9-5.6-19.4-11.9-28.5-18.7c-1-0.8-5-3.8-0.7-0.5c4.3,3.3,0.4,0.3-0.6-0.5c-2.2-1.8-4.4-3.6-6.5-5.4     c-4.3-3.7-8.5-7.5-12.6-11.4c-8.1-7.9-15.8-16.3-22.9-25.1c-0.7-0.9-2-2-2.4-3.1c-0.2-0.6,4.4,5.8,2.6,3.4     c-0.4-0.5-0.8-1-1.2-1.6c-1.8-2.4-3.6-4.9-5.4-7.4c-3.3-4.7-6.4-9.4-9.4-14.3c-5.8-9.6-11.1-19.5-15.7-29.7     c-0.7-1.6-1.4-3.2-2.1-4.8c-1.3-2.8,2.1,4.5,1.7,4c-0.5-0.6-0.7-1.7-1-2.5c-1.2-2.9-2.3-5.8-3.3-8.7c-2.2-6.1-4.2-12.2-6-18.4     c-3.7-12.8-6.3-25.9-8.1-39.2c0.4,2.6,0.7,5.2,1.1,7.8c-3.1-23.9-3.1-48.2,0-72.1c-0.4,2.6-0.7,5.2-1.1,7.8     c3.1-23,9.1-45.4,17.7-66.9c2.2-5.6-2.5,5.7-0.7,1.5c0.5-1.2,1.1-2.4,1.6-3.6c1.2-2.6,2.4-5.2,3.7-7.8c2.5-5.1,5.2-10.2,8-15.1     c5.6-9.9,11.9-19.4,18.7-28.5c0.8-1,3.8-5,0.5-0.7c-3.3,4.3-0.3,0.4,0.5-0.6c1.8-2.2,3.6-4.4,5.4-6.5c3.7-4.3,7.5-8.5,11.4-12.6     c7.9-8.1,16.3-15.8,25.1-22.9c0.9-0.7,2-2,3.1-2.4c0.6-0.2-5.8,4.4-3.4,2.6c0.5-0.4,1-0.8,1.6-1.2c2.4-1.8,4.9-3.6,7.4-5.4     c4.7-3.3,9.4-6.4,14.3-9.4c9.6-5.8,19.5-11.1,29.7-15.7c1.6-0.7,3.2-1.4,4.8-2.1c2.8-1.3-4.5,2.1-4,1.7c0.6-0.5,1.7-0.7,2.5-1     c2.9-1.2,5.8-2.3,8.7-3.3c6.1-2.2,12.2-4.2,18.4-6c12.8-3.7,25.9-6.3,39.2-8.1c-2.6,0.4-5.2,0.7-7.8,1.1     c23.9-3.1,48.2-3.1,72.1,0c-2.6-0.4-5.2-0.7-7.8-1.1c23,3.1,45.4,9.1,66.9,17.7c5.6,2.2-5.7-2.5-1.5-0.7c1.2,0.5,2.4,1.1,3.6,1.6     c2.6,1.2,5.2,2.4,7.8,3.7c5.1,2.5,10.2,5.2,15.1,8c9.9,5.6,19.4,11.9,28.5,18.7c1,0.8,5,3.8,0.7,0.5c-4.3-3.3-0.4-0.3,0.6,0.5     c2.2,1.8,4.4,3.6,6.5,5.4c4.3,3.7,8.5,7.5,12.6,11.4c8.1,7.9,15.8,16.3,22.9,25.1c0.7,0.9,2,2,2.4,3.1c0.2,0.6-4.4-5.8-2.6-3.4     c0.4,0.5,0.8,1,1.2,1.6c1.8,2.4,3.6,4.9,5.4,7.4c3.3,4.7,6.4,9.4,9.4,14.3c5.8,9.6,11.1,19.5,15.7,29.7c0.7,1.6,1.4,3.2,2.1,4.8     c1.3,2.8-2.1-4.5-1.7-4c0.5,0.6,0.7,1.7,1,2.5c1.2,2.9,2.3,5.8,3.3,8.7c2.2,6.1,4.2,12.2,6,18.4c3.7,12.8,6.3,25.9,8.1,39.2     c-0.4-2.6-0.7-5.2-1.1-7.8C660.3,413,661.1,425,661.2,437.1c0,15.4,13.5,30.2,29.4,29.4c15.9-0.7,29.5-12.9,29.4-29.4     c-0.2-61.6-19-123.5-54.9-173.6c-36.5-51.1-86.6-89.5-145.6-111.2c-58.4-21.5-124.7-23.4-184.5-6.4     c-57.8,16.4-111.4,50.6-149.6,97.1c-40.6,49.4-64.8,108.7-69.8,172.5c-4.8,61.6,10.5,125,42.5,177.8     c31,51.2,77.6,93.9,132.3,118.5c30.3,13.7,61.3,22.1,94.3,26.1c31.5,3.8,63.6,1.8,94.7-4.5c59-11.9,114.5-43,156-86.4     c41.9-43.7,71.2-100.5,80.3-160.5c2.5-16.4,4.1-32.7,4.2-49.3c0-15.4-13.6-30.1-29.4-29.4C674.6,408.3,661.2,420.6,661.2,437.1z"/></g></g><g><g><path d="M900.8,839.4c-8.6-7.9-17.3-15.8-25.9-23.7c-20.7-19-41.5-37.9-62.2-56.9c-25.2-23.1-50.5-46.2-75.7-69.2     c-21.7-19.9-43.4-39.7-65.2-59.6c-10.6-9.7-21-19.5-31.7-29c-0.2-0.1-0.3-0.3-0.5-0.4c-11.4-10.4-30.5-12.1-41.6,0     c-10.4,11.3-12.1,30.5,0,41.6c8.6,7.9,17.3,15.8,25.9,23.7c20.7,19,41.5,37.9,62.2,56.9c25.2,23.1,50.5,46.2,75.7,69.2     c21.7,19.9,43.4,39.7,65.2,59.6c10.6,9.7,21,19.5,31.7,29c0.2,0.1,0.3,0.3,0.5,0.4c11.4,10.4,30.5,12.1,41.6,0     C911.2,869.7,912.9,850.5,900.8,839.4L900.8,839.4z"/></g></g></g><text x="0" y="1039" fill="#000000" font-size="5px" font-weight="bold" font-family="'Helvetica Neue', Helvetica, Arial-Unicode, Arial, Sans-serif">Created by Nebhav</text><text x="0" y="1044" fill="#000000" font-size="5px" font-weight="bold" font-family="'Helvetica Neue', Helvetica, Arial-Unicode, Arial, Sans-serif">from the Noun Project</text></svg>