<svg xmlns="http://www.w3.org/2000/svg" data-name="Layer 1" viewBox="0 0 100 125" x="0px" y="0px"><title>Artboard 8</title><path d="M94.93,69.54a10.41,10.41,0,0,0,.31-1.4,8.52,8.52,0,0,0,.18-1.22C94.08,64.76,89,63.8,87,65.31a10.62,10.62,0,0,0-.32,1.44A8.8,8.8,0,0,0,86.51,68C87.85,70.13,92.91,71.06,94.93,69.54Z"/><path d="M84.92,80.42a11.37,11.37,0,0,0,1.25-.71,9.3,9.3,0,0,0,1-.68c.79-2.3-1.64-6.34-4-6.71A11.6,11.6,0,0,0,81.9,73a9.6,9.6,0,0,0-1.07.7C80.06,76,82.52,80.05,84.92,80.42Z"/><path d="M85.84,60.2c2.37.5,6.13-2.4,6.23-4.85a11.28,11.28,0,0,0-.84-1.17,9.23,9.23,0,0,0-.79-1c-2.39-.52-6.16,2.37-6.28,4.79A11.5,11.5,0,0,0,85,59.22,9.53,9.53,0,0,0,85.84,60.2Z"/><path d="M82.07,49.26l.31-.33c.12-.14.25-.3.37-.45a6.13,6.13,0,0,0,.36-6.74,5.88,5.88,0,0,0-1.66-1.8A14.48,14.48,0,0,0,80,39l-1-.63-1-.7a12.43,12.43,0,0,1-4.6-8,11.53,11.53,0,0,1-.12-1.16l-.14-1.53C73,26,73,25,72.81,24a29.23,29.23,0,0,0-4.65-11.88,23.13,23.13,0,0,0-7.22-6.77c-.48-.28-.94-.59-1.43-.83L58,3.78A35.67,35.67,0,0,0,45.59.88,46.27,46.27,0,0,0,33,1.68,38.89,38.89,0,0,0,21.2,6.25a34.85,34.85,0,0,0-9.55,8.29A32.67,32.67,0,0,0,5.9,25.68l-.72,3c-.17,1-.28,2-.42,3.06a32.87,32.87,0,0,0-.08,6.1,34.31,34.31,0,0,0,3,11.55c.41.9.86,1.77,1.34,2.62l1.35,2.33a39,39,0,0,1,2.15,4.5,36,36,0,0,1,2.28,9.4,33.55,33.55,0,0,1-2.92,17.67l0,.07a2.11,2.11,0,0,0,.49,2.45,32.79,32.79,0,0,0,2.73,2.18c.91.64,1.8,1.26,2.71,1.8a49.57,49.57,0,0,0,5.41,2.89,44.2,44.2,0,0,0,10.47,3.25c.84.13,1.65.33,2.47.39l2.41.21a20.93,20.93,0,0,0,2.33.06h2.25c1.47-.15,2.88-.25,4.24-.43L51.27,98a1.52,1.52,0,0,0,1.23-1.51v0c-.07-5.72-.15-8.61-.23-11.25a42.27,42.27,0,0,0,7.34.8q2.25.06,4.6-.11,1.17-.09,2.37-.24a20.07,20.07,0,0,0,2.58-.46A8.38,8.38,0,0,0,74.85,75l-.12-.4v0h0a2.42,2.42,0,0,1,0-.31,7.73,7.73,0,0,1,.06-1c0-.35.1-.71.17-1s.19-.74.29-1.14l.08-.31.06-.25a3.18,3.18,0,0,0,.06-.36,3.92,3.92,0,0,0-1.91-3.82,3.82,3.82,0,0,0-.71-.32,3.18,3.18,0,0,0-.37-.11l-.25-.06-.56-.12c-.37-.09-.73-.19-1.09-.3A7.86,7.86,0,0,1,67,63.33a5.28,5.28,0,0,1-.95-1.54l.69,0c1,0,2.05,0,3.08-.13s2.05-.23,3.08-.42a27.18,27.18,0,0,0,3.16-.77,2.38,2.38,0,0,0,1.67-2.37V58l-.24-5.86a13.33,13.33,0,0,0,3.91-2.3Q81.75,49.58,82.07,49.26ZM71.45,70.33h0ZM71,69.69v0l0,.06h0ZM78.78,45.1a1.08,1.08,0,0,1-.15.34l-.06.08-.16.17-.35.33A9.71,9.71,0,0,1,74.25,48h0a2.49,2.49,0,0,0-1.8,2.54l.32,5.8-.72.16c-.87.17-1.75.31-2.63.4s-1.75.15-2.61.15c-.22,0-.43,0-.65,0s-.3,0-.94,0a4.32,4.32,0,0,0-2.77,1.32,4.37,4.37,0,0,0-1,4.2,9.07,9.07,0,0,0,.32.9,10,10,0,0,0,1.9,3,12.38,12.38,0,0,0,5.59,3.36c.49.15,1,.27,1.47.38l.26.05c-.09.37-.18.71-.27,1.2s-.16,1-.2,1.47a11.78,11.78,0,0,0,0,1.55,6.26,6.26,0,0,0,.1.95l0,.14.09.33,0,.1.06.2a4.24,4.24,0,0,1-.34,3.17,4.34,4.34,0,0,1-2.4,2,18.33,18.33,0,0,1-2,.4q-1.08.17-2.15.29c-1.43.15-2.83.23-4.22.24a38,38,0,0,1-7.86-.67,27.06,27.06,0,0,1-6.69-2.25A18.25,18.25,0,0,1,40,75.84a1.78,1.78,0,0,0-2.25-.51c-.55.42-.52,1.5.22,2.35a20.52,20.52,0,0,0,5.64,4.43,29,29,0,0,0,6,2.49,2.63,2.63,0,0,0-.08.54c-.07,2.45-.14,5.09-.21,10l-2.45.36c-1.26.11-2.57.15-3.92.24L41,95.66a18.61,18.61,0,0,1-2.13-.13l-2.19-.27c-.75-.07-1.48-.29-2.25-.43a41.44,41.44,0,0,1-9.47-3.23A46.57,46.57,0,0,1,20,88.85c-.82-.51-1.62-1.09-2.42-1.68-.36-.28-.74-.57-1.11-.87a37.81,37.81,0,0,0,3.05-18.48,40.41,40.41,0,0,0-2.42-10.74,43.52,43.52,0,0,0-2.37-5.15l-1.33-2.36c-.4-.73-.77-1.48-1.11-2.24A29.36,29.36,0,0,1,9.9,37.48,27.83,27.83,0,0,1,10,32.29c.13-.86.22-1.72.37-2.58L11,27.18a27.45,27.45,0,0,1,4.87-9.26A29.6,29.6,0,0,1,24,11,33.64,33.64,0,0,1,34.15,7a41,41,0,0,1,11.07-.69A30.43,30.43,0,0,1,55.79,8.77a18.61,18.61,0,0,1,7.92,6.42,24,24,0,0,1,3.81,9.7c.17.88.19,1.77.3,2.64L68,28.88a16.79,16.79,0,0,0,.19,1.7,17.67,17.67,0,0,0,6.64,11.25l1.32.94,1.38.82a10.64,10.64,0,0,1,.93.54c.19.14.21.18.24.21A1,1,0,0,1,78.78,45.1Z"/><text x="0" y="115" fill="#000000" font-size="5px" font-weight="bold" font-family="'Helvetica Neue', Helvetica, Arial-Unicode, Arial, Sans-serif">Created by Gregor Cresnar</text><text x="0" y="120" fill="#000000" font-size="5px" font-weight="bold" font-family="'Helvetica Neue', Helvetica, Arial-Unicode, Arial, Sans-serif">from the Noun Project</text></svg>