<svg xmlns="http://www.w3.org/2000/svg" viewBox="0 0 64 64" x="0px" y="0px"><title>sticky notes, note, memo, agenda, reminder</title><g data-name="04"><path d="M59.7,47.6l-.13-.18A28,28,0,0,1,54,30.72V10.5A1.5,1.5,0,0,0,52.5,9H5.5A1.5,1.5,0,0,0,4,10.5v43A1.5,1.5,0,0,0,5.5,55h47A1.5,1.5,0,0,0,54,53.5V50h4.5a1.5,1.5,0,0,0,1.2-2.4ZM51,12v3H7V12Zm0,40H7V43.92a30.63,30.63,0,0,0,3.31,5.49A1.5,1.5,0,0,0,11.5,50H51ZM12.25,47A28,28,0,0,1,7,30.73V18H51V30.72A31.06,31.06,0,0,0,55.65,47Z"/></g><text x="0" y="79" display="none" fill="#000000" font-size="5px" font-weight="bold" font-family="'Helvetica Neue', Helvetica, Arial-Unicode, Arial, Sans-serif">Created by Azmi Anshori</text><text x="0" y="84" display="none" fill="#000000" font-size="5px" font-weight="bold" font-family="'Helvetica Neue', Helvetica, Arial-Unicode, Arial, Sans-serif">from the Noun Project</text></svg>
